<svg width="26" height="13" viewBox="0 0 26 13" fill="none" xmlns="http://www.w3.org/2000/svg">
<path d="M0.86 6.48C0.86 5.36 1.08667 4.38 1.54 3.54C1.99333 2.68667 2.61333 2.02667 3.4 1.56C4.2 1.09333 5.08667 0.859999 6.06 0.859999C7.02 0.859999 7.85333 1.06667 8.56 1.48C9.26667 1.89333 9.79333 2.41333 10.14 3.04V1.04H11.98V12H10.14V9.96C9.78 10.6 9.24 11.1333 8.52 11.56C7.81333 11.9733 6.98667 12.18 6.04 12.18C5.06667 12.18 4.18667 11.94 3.4 11.46C2.61333 10.98 1.99333 10.3067 1.54 9.44C1.08667 8.57333 0.86 7.58667 0.86 6.48ZM10.14 6.5C10.14 5.67333 9.97333 4.95333 9.64 4.34C9.30667 3.72667 8.85333 3.26 8.28 2.94C7.72 2.60667 7.1 2.44 6.42 2.44C5.74 2.44 5.12 2.6 4.56 2.92C4 3.24 3.55333 3.70667 3.22 4.32C2.88667 4.93333 2.72 5.65333 2.72 6.48C2.72 7.32 2.88667 8.05333 3.22 8.68C3.55333 9.29333 4 9.76667 4.56 10.1C5.12 10.42 5.74 10.58 6.42 10.58C7.1 10.58 7.72 10.42 8.28 10.1C8.85333 9.76667 9.30667 9.29333 9.64 8.68C9.97333 8.05333 10.14 7.32667 10.14 6.5Z" fill="white"/>
<path d="M25.0556 6.1C25.0556 6.44667 25.0356 6.81333 24.9956 7.2H16.2356C16.3023 8.28 16.669 9.12667 17.3356 9.74C18.0156 10.34 18.8356 10.64 19.7956 10.64C20.5823 10.64 21.2356 10.46 21.7556 10.1C22.289 9.72667 22.6623 9.23333 22.8756 8.62H24.8356C24.5423 9.67333 23.9556 10.5333 23.0756 11.2C22.1956 11.8533 21.1023 12.18 19.7956 12.18C18.7556 12.18 17.8223 11.9467 16.9956 11.48C16.1823 11.0133 15.5423 10.3533 15.0756 9.5C14.609 8.63333 14.3756 7.63333 14.3756 6.5C14.3756 5.36667 14.6023 4.37333 15.0556 3.52C15.509 2.66667 16.1423 2.01333 16.9556 1.56C17.7823 1.09333 18.729 0.859999 19.7956 0.859999C20.8356 0.859999 21.7556 1.08667 22.5556 1.54C23.3556 1.99333 23.969 2.62 24.3956 3.42C24.8356 4.20667 25.0556 5.1 25.0556 6.1ZM23.1756 5.72C23.1756 5.02667 23.0223 4.43333 22.7156 3.94C22.409 3.43333 21.989 3.05333 21.4556 2.8C20.9356 2.53333 20.3556 2.4 19.7156 2.4C18.7956 2.4 18.009 2.69333 17.3556 3.28C16.7156 3.86667 16.349 4.68 16.2556 5.72H23.1756Z" fill="#FF7E21"/>
</svg>
